HIERARCHY
ROOT hip
{
  OFFSET 0 0 0
  CHANNELS 6 Xposition Yposition Zposition Zrotation Yrotation Xrotation
  JOINT abdomen
  {
    OFFSET 0 20.6881 -0.73152
    CHANNELS 3 Zrotation Xrotation Yrotation
    JOINT chest
    {
      OFFSET 0 11.7043 -0.48768
      CHANNELS 3 Zrotation Xrotation Yrotation
      JOINT neck
      {
        OFFSET 0 22.1894 -2.19456
        CHANNELS 3 Zrotation Xrotation Yrotation
        JOINT head
        {
          OFFSET -0.24384 7.07133 1.2192
          CHANNELS 3 Zrotation Xrotation Yrotation
          JOINT leftEye
          {
            OFFSET 4.14528 8.04674 8.04672
            CHANNELS 3 Zrotation Xrotation Yrotation
            End Site
            {
              OFFSET 1 0 0
            }
          }
          JOINT rightEye
          {
            OFFSET -3.6576 8.04674 8.04672
            CHANNELS 3 Zrotation Xrotation Yrotation
            End Site
            {
              OFFSET 1 0 0
            }
          }
        }
      }
      JOINT rCollar
      {
        OFFSET -2.68224 19.2634 -4.8768
        CHANNELS 3 Zrotation Xrotation Yrotation
        JOINT rShldr
        {
          OFFSET -8.77824 -1.95073 1.46304
          CHANNELS 3 Zrotation Xrotation Yrotation
          JOINT rForeArm
          {
            OFFSET -28.1742 -1.7115 0.48768
            CHANNELS 3 Zrotation Xrotation Yrotation
            JOINT rHand
            {
              OFFSET -22.5879 0.773209 7.07136
              CHANNELS 3 Zrotation Xrotation Yrotation
              JOINT rThumb1
              {
                OFFSET -1.2192 -0.487915 3.41376
                CHANNELS 3 Zrotation Xrotation Yrotation
                JOINT rThumb2
                {
                  OFFSET -3.37035 -0.52449 3.41376
                  CHANNELS 3 Zrotation Xrotation Yrotation
                  End Site
                  {
                    OFFSET -1.78271 -1.18214 1.43049
                  }
                }
              }
              JOINT rIndex1
              {
                OFFSET -7.75947 0.938293 5.60832
                CHANNELS 3 Zrotation Xrotation Yrotation
                JOINT rIndex2
                {
                  OFFSET -2.54057 -0.884171 1.56538
                  CHANNELS 3 Zrotation Xrotation Yrotation
                  End Site
                  {
                    OFFSET -1.62519 -0.234802 1.16502
                  }
                }
              }
              JOINT rMid1
              {
                OFFSET -8.24714 1.18213 3.41376
                CHANNELS 3 Zrotation Xrotation Yrotation
                JOINT rMid2
                {
                  OFFSET -3.10165 -0.590103 1.0647
                  CHANNELS 3 Zrotation Xrotation Yrotation
                  End Site
                  {
                    OFFSET -2.48547 -0.328903 0.83742
                  }
                }
              }
              JOINT rRing1
              {
                OFFSET -8.82822 0.546677 1.51678
                CHANNELS 3 Zrotation Xrotation Yrotation
                JOINT rRing2
                {
                  OFFSET -2.60934 -0.819778 -0.0198488
                  CHANNELS 3 Zrotation Xrotation Yrotation
                  End Site
                  {
                    OFFSET -2.33842 -0.294052 0.168128
                  }
                }
              }
              JOINT rPinky1
              {
                OFFSET -8.27202 -0.0477905 -0.4584
                CHANNELS 3 Zrotation Xrotation Yrotation
                JOINT rPinky2
                {
                  OFFSET -1.82734 -0.647385 -0.700984
                  CHANNELS 3 Zrotation Xrotation Yrotation
                  End Site
                  {
                    OFFSET -1.69225 -0.51767 -0.607171
                  }
                }
              }
            }
          }
        }
      }
      JOINT lCollar
      {
        OFFSET 2.68224 19.2634 -4.8768
        CHANNELS 3 Zrotation Xrotation Yrotation
        JOINT lShldr
        {
          OFFSET 8.77824 -1.95073 1.46304
          CHANNELS 3 Zrotation Xrotation Yrotation
          JOINT lForeArm
          {
            OFFSET 28.1742 -1.7115 0.48768
            CHANNELS 3 Zrotation Xrotation Yrotation
            JOINT lHand
            {
              OFFSET 22.5879 0.773209 7.07136
              CHANNELS 3 Zrotation Xrotation Yrotation
              JOINT lThumb1
              {
                OFFSET 1.2192 -0.487915 3.41376
                CHANNELS 3 Zrotation Xrotation Yrotation
                JOINT lThumb2
                {
                  OFFSET 3.37035 -0.52449 3.41376
                  CHANNELS 3 Zrotation Xrotation Yrotation
                  End Site
                  {
                    OFFSET 1.78271 -1.18214 1.43049
                  }
                }
              }
              JOINT lIndex1
              {
                OFFSET 7.75947 0.938293 5.60832
                CHANNELS 3 Zrotation Xrotation Yrotation
                JOINT lIndex2
                {
                  OFFSET 2.54057 -0.884171 1.56538
                  CHANNELS 3 Zrotation Xrotation Yrotation
                  End Site
                  {
                    OFFSET 1.62519 -0.234802 1.16502
                  }
                }
              }
              JOINT lMid1
              {
                OFFSET 8.24714 1.18213 3.41376
                CHANNELS 3 Zrotation Xrotation Yrotation
                JOINT lMid2
                {
                  OFFSET 3.10165 -0.590103 1.0647
                  CHANNELS 3 Zrotation Xrotation Yrotation
                  End Site
                  {
                    OFFSET 2.48547 -0.328903 0.83742
                  }
                }
              }
              JOINT lRing1
              {
                OFFSET 8.82822 0.546677 1.51678
                CHANNELS 3 Zrotation Xrotation Yrotation
                JOINT lRing2
                {
                  OFFSET 2.60934 -0.819778 -0.0198488
                  CHANNELS 3 Zrotation Xrotation Yrotation
                  End Site
                  {
                    OFFSET 2.33842 -0.294052 0.168128
                  }
                }
              }
              JOINT lPinky1
              {
                OFFSET 8.27202 -0.0477905 -0.4584
                CHANNELS 3 Zrotation Xrotation Yrotation
                JOINT lPinky2
                {
                  OFFSET 1.82734 -0.647385 -0.700984
                  CHANNELS 3 Zrotation Xrotation Yrotation
                  End Site
                  {
                    OFFSET 1.69225 -0.51767 -0.607171
                  }
                }
              }
            }
          }
        }
      }
    }
  }
  JOINT rButtock
  {
    OFFSET -8.77824 4.35084 1.2192
    CHANNELS 3 Zrotation Xrotation Yrotation
    JOINT rThigh
    {
      OFFSET 0 -1.70687 -2.19456
      CHANNELS 3 Zrotation Xrotation Yrotation
      JOINT rShin
      {
        OFFSET 0 -36.8199 0.73152
        CHANNELS 3 Zrotation Xrotation Yrotation
        JOINT rFoot
        {
          OFFSET 0.73152 -45.1104 -5.12064
          CHANNELS 3 Zrotation Xrotation Yrotation
          End Site
          {
            OFFSET -1.1221 -3.69964 12.103
          }
        }
      }
    }
  }
  JOINT lButtock
  {
    OFFSET 8.77824 4.35084 1.2192
    CHANNELS 3 Zrotation Xrotation Yrotation
    JOINT lThigh
    {
      OFFSET 0 -1.70687 -2.19456
      CHANNELS 3 Zrotation Xrotation Yrotation
      JOINT lShin
      {
        OFFSET 0 -36.8199 0.73152
        CHANNELS 3 Zrotation Xrotation Yrotation
        JOINT lFoot
        {
          OFFSET -0.73152 -45.1104 -5.12064
          CHANNELS 3 Zrotation Xrotation Yrotation
          End Site
          {
            OFFSET 1.1221 -3.69964 12.103
          }
        }
      }
    }
  }
}
MOTION
Frames:	4
Frame Time:	0.03333
19.0393 63.9934 -2.8638 -14.721871 -56.930633 20.578492 3.489896 -1.848064 89.100564 -10.066992 -2.588409 -92.222928 -3.065279 17.911186 102.366445 -36.373655 1.835843 -96.618666 9.14227 6.416946 70.071798 -6.638236 -0.750603 12.888241 -157.635143 -23.088581 160.909804 166.967478 -44.267186 170.118219 129.540079 69.768594 68.485562 -170.98073 11.237077 127.661339 -171.202514 10.705883 82.270204 5.878395 18.751396 39.639648 -19.985564 -31.365294 10.617254 -60.437587 61.109599 73.235617 -167.235611 -2.839122 158.577145 9.028395 40.16178 -29.659166 -151.194116 -56.234191 153.513197 55.976975 -0.15813 47.021018 -25.779319 15.769248 135.427504 -27.757973 -3.424909 -127.715103 9.203895 63.036999 -14.976595 56.409093 66.052538 -51.96047 -177.3767 -14.684004 109.05746 -12.482031 -39.200428 -18.416178 74.815401 37.701446 -45.324221 150.234521 -1.531165 -80.667902 35.111573 49.050242 -25.854121 131.962389 -84.765003 131.025471 97.416383 36.675307 -52.930097 123.55401 -67.845873 -139.404246 134.256646 56.31186 -75.266098 151.326912 -73.703407 -127.066188 80.280277 -35.488484 51.410427 45.700285 -34.089177 28.427075 20.364986 11.152359 -9.221304 -33.275711 -35.969096 -21.643804 -56.647118 63.214489 -106.59443 -54.997981 40.520152 173.023052 6.226053 -0.85396 -7.969148 19.076848 -37.161752 124.667855 63.180714 8.613389 -103.568708 -153.721175 -20.124693 -8.497219
18.5586 63.863400000000006 -0.0111 -12.280922 -56.512261 18.786037 7.266243 -3.202988 -113.663504 11.318232 -1.57613 110.368582 -20.683591 21.660291 -110.130991 30.748017 35.855651 110.065548 0.415451 0.254223 62.926513 -12.269223 -1.815695 16.773872 -134.275983 34.784865 139.862956 43.285644 -55.525713 45.584186 34.43868 0.201859 141.884854 -79.379485 64.467004 45.3234 -23.444665 2.953302 0.615359 -114.757841 56.481588 53.894742 152.642298 -35.477307 111.461166 -170.680501 -1.889402 130.995249 -7.205869 -40.282043 -33.710269 25.976566 11.975822 35.585904 62.888458 -47.108233 48.308073 115.966676 -63.182896 149.979826 -94.22821 -31.139718 133.671905 -24.473527 10.366495 133.66576 108.806813 76.101592 -116.111825 9.335768 15.747522 -1.437857 -0.456869 30.397741 89.315004 157.282065 42.097186 -146.345772 157.484062 -7.985926 -90.563771 -19.430065 -62.581695 18.427341 122.411159 18.945915 -131.378204 176.562829 33.901836 166.681763 -79.944722 -74.365459 -80.054156 -162.768297 26.071624 -150.176383 63.108229 -5.161602 -6.526066 -34.853847 -9.09178 38.031477 -167.190319 53.891946 127.271932 -10.540159 -30.374287 13.391474 -168.770304 62.654756 -0.0 155.949301 26.512521 -84.425279 -75.86458 -24.885428 37.794 -39.136157 -50.891769 50.553957 -175.022243 80.593641 -0.0 -170.419069 46.07704 0.0 -35.019676 63.377121 147.090304 -69.235523 -36.132643 -159.126723
17.9834 63.086 2.8121 -11.095587 -55.687069 17.773063 2.664607 -2.526188 111.604738 -8.106835 9.033005 -117.063461 3.742629 14.497779 99.779866 -32.607067 3.815296 -84.316962 2.08673 1.209273 60.181474 -11.840282 -2.474028 23.526141 -7.33665 23.683283 21.575899 7.081241 63.224891 28.338851 32.506828 -3.181306 148.948672 -117.869161 63.701543 79.775474 -172.724532 -1.421504 85.740616 33.29027 -16.153041 -13.022564 123.725519 -65.865285 96.696442 -149.665308 21.891002 126.7773 -158.944636 -17.681367 160.216219 -114.581247 -52.228518 -160.261892 -92.095195 21.553062 102.590366 -103.043655 -12.672966 148.88491 142.892333 -23.819327 100.768151 150.822605 54.073961 141.547995 146.898434 -38.87378 175.394134 -26.88419 17.782805 -2.315765 -165.405867 -79.100378 -84.795883 151.491995 44.823342 -142.778732 156.328906 -6.187122 -98.135383 51.886386 21.282198 -30.188313 20.959279 -70.617871 102.702756 116.542055 -64.917796 -72.869568 171.507892 15.843894 -141.407594 25.888645 31.703223 -35.32571 124.081898 -73.793673 91.027101 -39.96821 53.130126 50.589096 138.006936 -25.20565 118.03384 10.384364 30.627898 -37.039492 -174.204386 60.613524 -6.644294 169.061294 21.267195 3.805501 -75.45953 75.539002 -4.841723 -7.539842 -59.868049 91.390247 4.221677 -8.010861 -0.0 2.065289 -18.092005 0.680632 -53.545176 41.915345 -57.832338 89.965113 -60.754279 174.712648
17.7738 63.346999999999994 5.7181999999999995 -8.69159 -56.395941 17.208443 1.912838 -1.105129 0.116623 -9.725334 -13.473396 -11.134636 12.194954 8.379238 63.404475 -23.972307 -6.57996 -50.561985 4.555963 2.461336 56.741939 -3.376798 -0.912805 30.245233 31.16202 -51.475505 16.868646 11.714186 -7.435392 -16.77637 -25.612892 -84.709794 167.904638 166.3133 -44.203073 122.725644 -0.792371 -0.102939 6.329353 61.019947 -79.612943 55.360117 -20.553223 -11.167556 0.884826 -168.885164 -46.891438 104.133642 -27.257236 56.221565 20.077603 -76.00175 54.130459 33.720113 -166.891901 -13.236457 133.977935 127.854921 -4.916773 155.79606 -93.244795 -24.937524 116.422319 -63.2595 -24.906466 144.274115 -2.224552 52.967881 3.114029 157.242941 68.433542 -142.550607 122.463711 -25.449879 155.701454 -165.373986 -51.136069 -155.875493 22.317015 35.855886 -5.529428 134.326889 -8.483401 -93.323811 -41.581426 59.941353 21.701749 -158.53604 -75.932869 153.489406 3.683172 -44.541277 13.938333 -1.61047 -8.288355 0.317892 114.720078 -72.69034 90.235476 83.022642 -49.664736 99.472043 164.920293 4.650038 142.716731 -3.145294 -1.307077 -31.245268 -3.795544 13.530185 5.645646 -4.870135 -64.500267 -65.709994 -92.616224 13.346943 4.674829 -8.243247 -23.444151 88.661478 176.789703 85.539786 -0.0 -169.074974 64.497608 -82.452372 -57.461109 -11.16175 -174.922021 -93.771989 82.774735 3.594085
